# xmcd CD database file
#
# Track frame offsets:
#	150
#	10595
#	19453
#	30160
#	41565
#	49693
#	59015
#	70488
#	82408
#	91540
#	102420
#	111285
#	126543
#	137233
#	145658
#	158538
#	172770
#	184025
#	192330
#	201443
#
# Disc length: 2827 seconds
#
# Revision: 1
# Processed by: cddbd v1.5.1PL0 Copyright (c) Steve Scherf et al.
# Submitted via: CDex 1.51
#
DISCID=180b0914
DTITLE=Roger Miller - King Of The Road
DYEAR=1994
DGENRE=Oldies
TTITLE0=Engine Engine No. 9
TTITLE1=England Swings
TTITLE2=Kansas City Star
TTITLE3=King Of The Road
TTITLE4=Dang Me
TTITLE5=Chug-A-Lug
TTITLE6=Husbands And Wives
TTITLE7=Walking In The Sunshine
TTITLE8=My Uncle Used To Love Me But She Died
TTITLE9=When Two Worlds Collide
TTITLE10=You Can't Rollerskate In A Buffalo Herd
TTITLE11=Me And Bobby McGee
TTITLE12=Please Release Me
TTITLE13=In The Summertime
TTITLE14=The Last Word In Lonesome
TTITLE15=My Elusive Dreams
TTITLE16=Everything's Coming Up Roses
TTITLE17=Do-Wacka-Do
TTITLE18=Billy Bayou
TTITLE19=Burning Bridges
EXTD=YEAR: 1994
EXTT0=
EXTT1=
EXTT2=
EXTT3=
EXTT4=
EXTT5=
EXTT6=
EXTT7=
EXTT8=
EXTT9=
EXTT10=
EXTT11=
EXTT12=
EXTT13=
EXTT14=
EXTT15=
EXTT16=
EXTT17=
EXTT18=
EXTT19=
PLAYORDER=
